<?xml version="1.0" standalone="no"?>
<!DOCTYPE svg PUBLIC "-//W3C//DTD SVG 20010904//EN"
 "http://www.w3.org/TR/2001/REC-SVG-20010904/DTD/svg10.dtd">
<svg version="1.0" xmlns="http://www.w3.org/2000/svg"
 width="300.000000pt" height="300.000000pt" viewBox="0 0 300.000000 300.000000"
 preserveAspectRatio="xMidYMid meet">
<metadata>
Created by potrace 1.10, written by Peter Selinger 2001-2011
</metadata>
<g transform="translate(0.000000,300.000000) scale(0.100000,-0.100000)"
fill="#000000" stroke="none">
<path d="M1424 2249 c-2 -4 9 -9 25 -12 16 -3 36 -13 44 -22 19 -19 37 -78 37
-122 0 -29 3 -33 28 -33 15 0 37 -3 48 -6 20 -5 22 0 32 68 9 59 16 77 37 96
14 12 36 22 47 22 12 0 19 2 16 6 -8 7 -309 10 -314 3z m181 -81 c-12 -73 -27
-79 -43 -16 -13 49 -9 58 24 58 25 0 25 -2 19 -42z"/>
<path d="M1375 2135 c-27 -8 -83 -31 -125 -51 -93 -46 -229 -177 -277 -269
l-32 -60 6 56 c3 33 1 71 -6 92 -16 47 -36 61 -26 19 4 -20 -1 -56 -14 -100
-36 -119 -41 -162 -25 -207 7 -22 14 -51 14 -65 0 -25 0 -25 -19 5 -29 47
-121 132 -121 113 0 -9 5 -20 10 -23 17 -10 49 -80 75 -164 14 -44 30 -83 35
-86 6 -3 10 -5 10 -3 0 13 -64 195 -71 203 -5 5 -9 14 -9 19 0 6 13 -5 30 -24
36 -43 62 -117 59 -167 -1 -21 2 -46 6 -56 15 -36 -2 -24 -53 39 -29 35 -57
64 -62 64 -23 0 77 -186 120 -225 31 -28 24 -9 -19 48 -42 56 -75 116 -68 123
6 6 81 -93 101 -134 10 -18 15 -39 13 -45 -3 -7 5 -23 17 -36 18 -20 14 -19
-29 8 -49 31 -122 57 -132 47 -10 -9 9 -27 24 -22 26 10 109 -34 158 -84 90
-91 19 -70 -83 25 -72 67 -93 73 -32 9 48 -50 125 -104 148 -104 8 0 50 -34
94 -75 61 -57 103 -86 172 -120 108 -52 181 -69 296 -68 238 1 450 123 582
334 34 53 5 36 -33 -19 -85 -127 -209 -221 -354 -269 -68 -22 -98 -26 -200
-26 -105 -1 -130 3 -200 27 -107 37 -186 87 -268 168 l-68 68 7 109 c6 100 5
113 -16 155 -12 25 -28 46 -36 46 -18 0 -18 4 1 41 9 16 18 60 21 97 5 64 5
66 -11 47 -22 -25 -65 -115 -65 -135 0 -8 -5 -22 -10 -30 -7 -11 -10 2 -10 45
l0 59 89 87 c62 61 94 100 106 132 20 53 16 101 -4 52 -7 -16 -14 -40 -15 -52
-4 -28 -27 -57 -104 -127 -90 -84 -76 -47 18 48 44 44 78 82 75 85 -3 3 -39
-28 -80 -69 l-74 -74 10 40 c6 21 28 76 50 122 32 65 57 101 122 166 69 70 98
91 178 130 52 25 116 49 142 52 26 4 47 11 47 15 0 12 -25 10 -85 -6z m-460
-408 c-14 -56 -28 -104 -32 -107 -13 -12 5 111 28 185 35 115 38 54 4 -78z
m64 -203 c-9 -47 -59 -168 -66 -160 -11 10 56 206 70 206 3 0 1 -21 -4 -46z
m-9 -227 c-1 -92 -2 -99 -14 -77 -8 14 -20 44 -26 67 -11 37 -11 48 5 83 10
22 22 37 26 34 5 -3 9 -51 9 -107z m40 32 c14 -52 2 -200 -14 -173 -11 21 -15
225 -4 218 4 -3 12 -23 18 -45z"/>
<path d="M1700 2140 c0 -4 30 -17 68 -29 102 -34 169 -77 258 -165 86 -86 139
-175 165 -275 7 -28 17 -51 22 -51 21 0 -40 161 -89 235 -67 100 -152 178
-251 229 -59 31 -173 68 -173 56z"/>
<path d="M1445 2010 c-33 -4 -93 -8 -133 -9 -46 -1 -71 -5 -67 -11 3 -5 14
-10 24 -10 41 0 46 -46 46 -390 0 -351 -4 -381 -53 -388 -45 -7 -20 -17 46
-18 37 -1 123 -3 192 -5 124 -4 126 -4 192 29 36 18 81 49 99 69 80 92 122
252 102 392 -36 245 -202 372 -448 341z m210 -41 c207 -106 238 -552 51 -716
-26 -23 -64 -47 -83 -54 -37 -12 -210 -8 -232 5 -8 5 -11 114 -11 391 l0 384
43 10 c75 18 177 9 232 -20z"/>
<path d="M1528 1595 l-3 -365 26 0 c44 0 91 21 85 37 -3 8 -6 162 -6 343 l0
328 -44 11 c-25 6 -47 11 -50 11 -3 0 -7 -164 -8 -365z m59 -262 c-2 -21 -4
-6 -4 32 0 39 2 55 4 38 2 -18 2 -50 0 -70z"/>
<path d="M1635 1139 c-16 -4 -64 -7 -105 -9 -41 -1 -84 -5 -95 -10 -12 -5 44
-9 145 -9 123 0 159 3 140 11 -14 5 -32 13 -40 17 -8 4 -28 4 -45 0z"/>
<path d="M823 753 c12 -3 17 -15 17 -39 0 -19 5 -34 11 -34 7 0 10 14 7 35 -3
25 0 35 12 39 8 2 -3 4 -25 4 -22 0 -32 -2 -22 -5z"/>
<path d="M943 720 c0 -25 2 -35 4 -22 6 29 43 31 43 2 0 -11 5 -20 10 -20 6 0
10 18 10 40 0 22 -4 40 -10 40 -5 0 -10 -7 -10 -15 0 -21 -38 -19 -43 3 -3 9
-5 -3 -4 -28z"/>
<path d="M1072 723 c3 -34 6 -38 33 -40 20 -1 23 0 8 4 -13 2 -23 11 -23 18 0
7 10 16 23 18 l22 4 -22 2 c-13 0 -23 5 -23 10 0 5 10 12 23 14 15 3 12 5 -11
6 -32 1 -33 0 -30 -36z"/>
<path d="M1270 720 c0 -22 5 -40 10 -40 6 0 10 18 10 40 0 22 -4 40 -10 40 -5
0 -10 -18 -10 -40z"/>
<path d="M1352 723 c2 -31 7 -39 26 -41 30 -4 52 14 52 43 0 25 -17 35 -56 35
-23 0 -25 -3 -22 -37z m62 11 c7 -19 -10 -44 -30 -44 -9 0 -14 11 -14 30 0 23
5 30 19 30 10 0 22 -7 25 -16z"/>
<path d="M1490 720 c0 -39 1 -40 33 -39 23 1 26 3 10 6 -13 2 -23 11 -23 18 0
7 10 16 23 18 l22 4 -22 2 c-13 0 -23 5 -23 10 0 5 10 12 23 14 16 3 13 5 -10
6 -32 1 -33 0 -33 -39z"/>
<path d="M1616 724 c-9 -20 -14 -39 -10 -43 4 -3 9 0 11 7 6 15 35 16 51 0 16
-16 15 -8 -3 36 -8 20 -19 36 -23 36 -5 0 -16 -16 -26 -36z"/>
<path d="M1737 753 c-13 -12 -7 -23 18 -35 29 -13 23 -32 -8 -22 -17 5 -19 3
-11 -6 7 -6 20 -10 30 -8 27 5 30 35 5 43 -28 8 -27 23 2 28 20 4 20 4 -4 6
-14 0 -29 -2 -32 -6z"/>
<path d="M1930 720 c0 -34 3 -40 21 -40 31 0 59 18 59 38 0 26 -20 42 -52 42
-26 0 -28 -3 -28 -40z m58 6 c4 -17 -12 -35 -30 -36 -5 0 -8 14 -8 31 0 24 4
30 17 27 10 -2 19 -12 21 -22z"/>
<path d="M2070 720 c0 -39 1 -40 33 -39 30 2 30 2 5 6 -34 5 -37 30 -5 36 l22
4 -22 2 c-32 2 -29 19 5 24 25 4 25 4 -5 6 -32 1 -33 0 -33 -39z"/>
<path d="M2191 718 c2 -32 3 -36 6 -14 l5 28 29 -28 29 -28 -1 45 c-1 38 -2
40 -8 14 l-6 -29 -21 27 c-12 15 -25 27 -28 27 -3 0 -5 -19 -5 -42z"/>
</g>
</svg>
